HIERARCHY
ROOT Hips
{
  OFFSET 0.00000 0.00000 0.05000
  CHANNELS 6 Xposition Yposition Zposition Zrotation Xrotation Yrotation
  JOINT J1
  {
    OFFSET -0.03065 0.05000 1.44491
    CHANNELS 3 Zrotation Xrotation Yrotation
    JOINT J0
    {
      OFFSET 0.01581 0.05000 0.59036
      CHANNELS 3 Zrotation Xrotation Yrotation
    }
    JOINT J2
    {
      OFFSET -0.46106 0.05000 0.00773
      CHANNELS 3 Zrotation Xrotation Yrotation
      JOINT J3
      {
        OFFSET -0.18187 0.05000 -0.68062
        CHANNELS 3 Zrotation Xrotation Yrotation
        JOINT J4
        {
          OFFSET -0.04489 0.05000 -0.59788
          CHANNELS 3 Zrotation Xrotation Yrotation
        }
      }
    }
    JOINT J5
    {
      OFFSET 0.43895 0.05000 -0.00024
      CHANNELS 3 Zrotation Xrotation Yrotation
      JOINT J6
      {
        OFFSET 0.18944 0.05000 -0.67310
        CHANNELS 3 Zrotation Xrotation Yrotation
        JOINT J7
        {
          OFFSET 0.07576 0.05000 -0.63575
          CHANNELS 3 Zrotation Xrotation Yrotation
        }
      }
    }
  }
  JOINT J9
  {
    OFFSET -0.31013 0.05000 -0.00768
    CHANNELS 3 Zrotation Xrotation Yrotation
    JOINT J10
    {
      OFFSET 0.01518 0.05000 -1.05887
      CHANNELS 3 Zrotation Xrotation Yrotation
      JOINT J11
      {
        OFFSET 0.00780 0.05000 -0.96134
        CHANNELS 3 Zrotation Xrotation Yrotation
      }
    }
  }
  JOINT J12
  {
    OFFSET 0.27274 0.05000 0.00729
    CHANNELS 3 Zrotation Xrotation Yrotation
    JOINT J13
    {
      OFFSET 0.12064 0.05000 -1.05932
      CHANNELS 3 Zrotation Xrotation Yrotation
      JOINT J14
      {
        OFFSET 0.04567 0.05000 -0.95305
        CHANNELS 3 Zrotation Xrotation Yrotation
      }
    }
  }
}
MOTION
Frames: 33
Frame Time: 0.033333
2.50184 0.05000 -5.14781 0 0 0 -0.01 0.00 0.00 5.06 0.00 0.00 -86.94 0.00 0.00 -95.81 0.00 0.00 -22.36 0.00 0.00 94.93 0.00 0.00 165.82 0.00 0.00 174.13 0.00 0.00 -89.09 0.00 0.00 179.98 0.00 0.00 -174.13 0.00 0.00 91.62 0.00 0.00 179.98 0.00 0.00 177.38 0.00 0.00
2.50176 0.05000 -5.15213 0 0 0 -0.18 0.00 0.00 5.49 0.00 0.00 -86.88 0.00 0.00 -97.71 0.00 0.00 -13.95 0.00 0.00 94.41 0.00 0.00 165.89 0.00 0.00 173.74 0.00 0.00 -89.10 0.00 0.00 179.98 0.00 0.00 -174.13 0.00 0.00 90.85 0.00 0.00 179.97 0.00 0.00 177.39 0.00 0.00
2.50177 0.05000 -5.15215 0 0 0 -0.36 0.00 0.00 5.91 0.00 0.00 -86.86 0.00 0.00 -99.43 0.00 0.00 -4.64 0.00 0.00 94.42 0.00 0.00 165.48 0.00 0.00 173.76 0.00 0.00 -90.00 0.00 0.00 179.98 0.00 0.00 -173.92 0.00 0.00 90.85 0.00 0.00 179.97 0.00 0.00 177.39 0.00 0.00
2.50181 0.05000 -5.15214 0 0 0 -0.53 0.00 0.00 5.91 0.00 0.00 -86.85 0.00 0.00 -101.04 0.00 0.00 6.58 0.00 0.00 94.42 0.00 0.00 165.15 0.00 0.00 173.74 0.00 0.00 -90.00 0.00 0.00 179.98 0.00 0.00 -173.94 0.00 0.00 90.85 0.00 0.00 179.97 0.00 0.00 177.40 0.00 0.00
2.50185 0.05000 -5.15215 0 0 0 -0.54 0.00 0.00 5.46 0.00 0.00 -86.88 0.00 0.00 -102.19 0.00 0.00 16.80 0.00 0.00 94.43 0.00 0.00 165.16 0.00 0.00 173.73 0.00 0.00 -89.99 0.00 0.00 179.99 0.00 0.00 -174.18 0.00 0.00 90.86 0.00 0.00 179.97 0.00 0.00 177.40 0.00 0.00
2.50188 0.05000 -5.15214 0 0 0 -0.54 0.00 0.00 5.01 0.00 0.00 -86.88 0.00 0.00 -102.85 0.00 0.00 25.15 0.00 0.00 94.94 0.00 0.00 165.09 0.00 0.00 173.71 0.00 0.00 -89.99 0.00 0.00 179.99 0.00 0.00 -174.18 0.00 0.00 90.86 0.00 0.00 179.97 0.00 0.00 177.41 0.00 0.00
2.50187 0.05000 -5.14782 0 0 0 -0.54 0.00 0.00 4.57 0.00 0.00 -86.91 0.00 0.00 -103.31 0.00 0.00 30.22 0.00 0.00 95.45 0.00 0.00 165.01 0.00 0.00 173.69 0.00 0.00 -89.98 0.00 0.00 179.99 0.00 0.00 -173.97 0.00 0.00 91.64 0.00 0.00 179.97 0.00 0.00 177.42 0.00 0.00
2.50181 0.05000 -5.14350 0 0 0 -0.54 0.00 0.00 4.13 0.00 0.00 -86.35 0.00 0.00 -104.04 0.00 0.00 32.41 0.00 0.00 95.46 0.00 0.00 165.11 0.00 0.00 173.65 0.00 0.00 -89.97 0.00 0.00 179.99 0.00 0.00 -173.97 0.00 0.00 92.41 0.00 0.00 179.97 0.00 0.00 177.41 0.00 0.00
2.50175 0.05000 -5.13913 0 0 0 -0.54 0.00 0.00 3.72 0.00 0.00 -85.78 0.00 0.00 -104.49 0.00 0.00 31.34 0.00 0.00 95.46 0.00 0.00 165.12 0.00 0.00 173.65 0.00 0.00 -89.96 0.00 0.00 179.99 0.00 0.00 -173.97 0.00 0.00 93.19 0.00 0.00 179.96 0.00 0.00 177.41 0.00 0.00
2.50171 0.05000 -5.13909 0 0 0 -0.71 0.00 0.00 4.17 0.00 0.00 -85.74 0.00 0.00 -104.21 0.00 0.00 27.55 0.00 0.00 95.41 0.00 0.00 165.12 0.00 0.00 173.66 0.00 0.00 -89.07 0.00 0.00 179.99 0.00 0.00 -173.74 0.00 0.00 93.19 0.00 0.00 179.96 0.00 0.00 177.41 0.00 0.00
2.50167 0.05000 -5.14341 0 0 0 -0.71 0.00 0.00 4.21 0.00 0.00 -85.17 0.00 0.00 -103.92 0.00 0.00 21.29 0.00 0.00 95.42 0.00 0.00 165.12 0.00 0.00 173.67 0.00 0.00 -89.07 0.00 0.00 179.99 0.00 0.00 -173.98 0.00 0.00 92.41 0.00 0.00 179.96 0.00 0.00 177.41 0.00 0.00
2.50171 0.05000 -5.14773 0 0 0 -0.53 0.00 0.00 4.24 0.00 0.00 -85.17 0.00 0.00 -103.17 0.00 0.00 13.00 0.00 0.00 95.47 0.00 0.00 165.12 0.00 0.00 173.68 0.00 0.00 -89.08 0.00 0.00 179.99 0.00 0.00 -174.22 0.00 0.00 91.64 0.00 0.00 179.96 0.00 0.00 177.41 0.00 0.00
2.50176 0.05000 -5.14776 0 0 0 -0.36 0.00 0.00 4.27 0.00 0.00 -85.73 0.00 0.00 -101.55 0.00 0.00 3.68 0.00 0.00 95.52 0.00 0.00 165.11 0.00 0.00 173.69 0.00 0.00 -89.08 0.00 0.00 180.00 0.00 0.00 -174.45 0.00 0.00 91.64 0.00 0.00 179.97 0.00 0.00 177.41 0.00 0.00
2.50180 0.05000 -5.15208 0 0 0 -0.19 0.00 0.00 4.28 0.00 0.00 -86.30 0.00 0.00 -99.49 0.00 0.00 -5.56 0.00 0.00 95.52 0.00 0.00 165.43 0.00 0.00 173.70 0.00 0.00 -88.18 0.00 0.00 180.00 0.00 0.00 -174.45 0.00 0.00 90.87 0.00 0.00 179.97 0.00 0.00 177.41 0.00 0.00
2.50184 0.05000 -5.15212 0 0 0 -0.02 0.00 0.00 4.29 0.00 0.00 -86.32 0.00 0.00 -97.83 0.00 0.00 -14.14 0.00 0.00 95.51 0.00 0.00 165.76 0.00 0.00 173.70 0.00 0.00 -89.08 0.00 0.00 180.00 0.00 0.00 -174.67 0.00 0.00 90.87 0.00 0.00 179.97 0.00 0.00 177.41 0.00 0.00
2.50186 0.05000 -5.14784 0 0 0 -0.01 0.00 0.00 4.75 0.00 0.00 -86.90 0.00 0.00 -96.20 0.00 0.00 -20.66 0.00 0.00 95.45 0.00 0.00 166.09 0.00 0.00 173.70 0.00 0.00 -89.08 0.00 0.00 180.00 0.00 0.00 -174.65 0.00 0.00 91.65 0.00 0.00 179.97 0.00 0.00 177.41 0.00 0.00
2.50186 0.05000 -5.14353 0 0 0 -0.01 0.00 0.00 4.76 0.00 0.00 -86.91 0.00 0.00 -95.34 0.00 0.00 -25.05 0.00 0.00 95.40 0.00 0.00 166.42 0.00 0.00 173.71 0.00 0.00 -89.07 0.00 0.00 180.00 0.00 0.00 -174.62 0.00 0.00 92.42 0.00 0.00 179.98 0.00 0.00 177.41 0.00 0.00
2.50183 0.05000 -5.14352 0 0 0 -0.01 0.00 0.00 4.74 0.00 0.00 -86.94 0.00 0.00 -94.96 0.00 0.00 -26.76 0.00 0.00 95.39 0.00 0.00 166.41 0.00 0.00 173.71 0.00 0.00 -89.08 0.00 0.00 179.99 0.00 0.00 -174.60 0.00 0.00 92.42 0.00 0.00 179.98 0.00 0.00 177.41 0.00 0.00
2.50181 0.05000 -5.14357 0 0 0 -0.01 0.00 0.00 4.72 0.00 0.00 -86.94 0.00 0.00 -94.99 0.00 0.00 -26.56 0.00 0.00 95.44 0.00 0.00 166.08 0.00 0.00 173.71 0.00 0.00 -89.98 0.00 0.00 179.99 0.00 0.00 -174.60 0.00 0.00 92.42 0.00 0.00 179.97 0.00 0.00 177.41 0.00 0.00
2.50179 0.05000 -5.14360 0 0 0 -0.01 0.00 0.00 4.69 0.00 0.00 -86.93 0.00 0.00 -96.54 0.00 0.00 -23.30 0.00 0.00 95.50 0.00 0.00 165.74 0.00 0.00 173.70 0.00 0.00 -89.98 0.00 0.00 179.99 0.00 0.00 -174.62 0.00 0.00 92.42 0.00 0.00 179.97 0.00 0.00 177.41 0.00 0.00
2.50178 0.05000 -5.14789 0 0 0 -0.02 0.00 0.00 4.65 0.00 0.00 -86.92 0.00 0.00 -98.23 0.00 0.00 -18.59 0.00 0.00 95.55 0.00 0.00 165.41 0.00 0.00 173.70 0.00 0.00 -89.99 0.00 0.00 179.99 0.00 0.00 -174.65 0.00 0.00 91.64 0.00 0.00 179.97 0.00 0.00 177.41 0.00 0.00
2.50172 0.05000 -5.15229 0 0 0 -0.19 0.00 0.00 4.61 0.00 0.00 -86.91 0.00 0.00 -99.99 0.00 0.00 -11.15 0.00 0.00 95.56 0.00 0.00 165.09 0.00 0.00 173.68 0.00 0.00 -90.00 0.00 0.00 179.76 0.00 0.00 -174.67 0.00 0.00 90.86 0.00 0.00 179.97 0.00 0.00 177.41 0.00 0.00
2.50170 0.05000 -5.15664 0 0 0 -0.36 0.00 0.00 4.59 0.00 0.00 -86.88 0.00 0.00 -102.08 0.00 0.00 -3.29 0.00 0.00 95.50 0.00 0.00 165.44 0.00 0.00 173.27 0.00 0.00 -90.01 0.00 0.00 179.76 0.00 0.00 -174.45 0.00 0.00 90.08 0.00 0.00 179.97 0.00 0.00 177.41 0.00 0.00
2.50165 0.05000 -5.15665 0 0 0 -0.53 0.00 0.00 4.56 0.00 0.00 -86.31 0.00 0.00 -104.56 0.00 0.00 6.12 0.00 0.00 95.46 0.00 0.00 165.71 0.00 0.00 173.29 0.00 0.00 -90.01 0.00 0.00 179.76 0.00 0.00 -174.45 0.00 0.00 90.08 0.00 0.00 179.96 0.00 0.00 177.41 0.00 0.00
2.50154 0.05000 -5.15663 0 0 0 -0.70 0.00 0.00 4.52 0.00 0.00 -86.32 0.00 0.00 -105.44 0.00 0.00 14.62 0.00 0.00 95.41 0.00 0.00 166.07 0.00 0.00 173.27 0.00 0.00 -90.01 0.00 0.00 179.76 0.00 0.00 -174.45 0.00 0.00 90.08 0.00 0.00 179.96 0.00 0.00 177.41 0.00 0.00
2.50144 0.05000 -5.15667 0 0 0 -0.86 0.00 0.00 4.06 0.00 0.00 -86.32 0.00 0.00 -106.08 0.00 0.00 22.72 0.00 0.00 95.36 0.00 0.00 166.77 0.00 0.00 172.87 0.00 0.00 -90.01 0.00 0.00 179.77 0.00 0.00 -174.45 0.00 0.00 90.08 0.00 0.00 179.96 0.00 0.00 177.41 0.00 0.00
2.49710 0.05000 -5.15659 0 0 0 -0.69 0.00 0.00 3.61 0.00 0.00 -86.32 0.00 0.00 -106.25 0.00 0.00 27.94 0.00 0.00 95.35 0.00 0.00 167.48 0.00 0.00 172.48 0.00 0.00 -90.00 0.00 0.00 -180.00 0.00 0.00 -174.48 0.00 0.00 90.09 0.00 0.00 179.73 0.00 0.00 177.40 0.00 0.00
2.49273 0.05000 -5.15656 0 0 0 -0.52 0.00 0.00 3.17 0.00 0.00 -86.32 0.00 0.00 -106.05 0.00 0.00 31.14 0.00 0.00 95.36 0.00 0.00 167.84 0.00 0.00 172.48 0.00 0.00 -89.99 0.00 0.00 -180.00 0.00 0.00 -174.74 0.00 0.00 90.09 0.00 0.00 179.49 0.00 0.00 177.39 0.00 0.00
2.48837 0.05000 -5.15660 0 0 0 -0.36 0.00 0.00 2.74 0.00 0.00 -86.32 0.00 0.00 -105.59 0.00 0.00 30.92 0.00 0.00 95.37 0.00 0.00 168.27 0.00 0.00 172.04 0.00 0.00 -89.99 0.00 0.00 -179.99 0.00 0.00 -174.98 0.00 0.00 90.09 0.00 0.00 179.26 0.00 0.00 177.39 0.00 0.00
2.48400 0.05000 -5.15673 0 0 0 -0.19 0.00 0.00 2.32 0.00 0.00 -85.80 0.00 0.00 -105.57 0.00 0.00 28.22 0.00 0.00 94.87 0.00 0.00 168.68 0.00 0.00 171.65 0.00 0.00 -90.00 0.00 0.00 -180.00 0.00 0.00 -174.98 0.00 0.00 90.09 0.00 0.00 179.02 0.00 0.00 177.39 0.00 0.00
2.47965 0.05000 -5.15681 0 0 0 -0.03 0.00 0.00 2.32 0.00 0.00 -85.85 0.00 0.00 -104.92 0.00 0.00 22.57 0.00 0.00 94.88 0.00 0.00 168.68 0.00 0.00 171.64 0.00 0.00 -90.01 0.00 0.00 179.99 0.00 0.00 -175.22 0.00 0.00 90.08 0.00 0.00 178.79 0.00 0.00 177.39 0.00 0.00
2.47960 0.05000 -5.15690 0 0 0 -0.03 0.00 0.00 2.32 0.00 0.00 -85.90 0.00 0.00 -103.78 0.00 0.00 15.42 0.00 0.00 94.39 0.00 0.00 168.75 0.00 0.00 171.64 0.00 0.00 -90.00 0.00 0.00 179.99 0.00 0.00 -175.23 0.00 0.00 90.09 0.00 0.00 178.79 0.00 0.00 177.39 0.00 0.00
2.47956 0.05000 -5.15693 0 0 0 -0.03 0.00 0.00 2.32 0.00 0.00 -85.96 0.00 0.00 -102.24 0.00 0.00 6.36 0.00 0.00 93.88 0.00 0.00 168.84 0.00 0.00 171.61 0.00 0.00 -90.00 0.00 0.00 179.98 0.00 0.00 -175.21 0.00 0.00 90.09 0.00 0.00 178.80 0.00 0.00 177.38 0.00 0.00
